<?xml version="1.0" standalone="no"?>
<!DOCTYPE svg PUBLIC "-//W3C//DTD SVG 20010904//EN"
 "http://www.w3.org/TR/2001/REC-SVG-20010904/DTD/svg10.dtd">
<svg version="1.0" xmlns="http://www.w3.org/2000/svg"
 width="300.000000pt" height="300.000000pt" viewBox="0 0 300.000000 300.000000"
 preserveAspectRatio="xMidYMid meet">
<metadata>
Created by potrace 1.11, written by Peter Selinger 2001-2013
</metadata>
<g transform="translate(0.000000,300.000000) scale(0.100000,-0.100000)"
fill="#000000" stroke="none">
<path d="M1349 2996 c-2 -2 -28 -7 -58 -10 -123 -15 -324 -74 -440 -131 -312
-153 -556 -399 -709 -715 -38 -79 -95 -242 -105 -300 -3 -14 -11 -54 -18 -90
-8 -39 -14 -133 -14 -235 0 -211 7 -272 52 -425 73 -254 199 -468 382 -650
215 -214 446 -339 756 -410 119 -28 401 -36 525 -15 124 20 133 23 251 61 376
121 703 406 877 764 49 101 94 223 106 284 2 12 9 42 15 68 20 89 26 154 26
308 0 167 -8 242 -36 355 -134 532 -529 942 -1049 1088 -133 38 -252 54 -416
55 -78 1 -143 0 -145 -2z"/>
</g>
</svg>
